<svg preserveAspectRatio="none" overflow="visible" style="display: block;" width="25.3333" height="25.3333" viewBox="0 0 25.3333 25.3333" fill="none" xmlns="http://www.w3.org/2000/svg">
<g id="&#230;&#140;&#137;&#233;&#146;&#174;" filter="url(#filter0_d_0_1007)">
<rect x="2.66667" y="2.66667" width="20" height="20" rx="10" fill="white"/>
<path id="&#229;&#189;&#162;&#231;&#138;&#182;&#231;&#187;&#147;&#229;&#144;&#136;" d="M10.3947 8.66667C10.7082 8.66684 10.962 8.92141 10.962 9.23503V16.0983C10.962 16.4119 10.7082 16.6665 10.3947 16.6667C10.0809 16.6667 9.82629 16.412 9.82629 16.0983V9.23503C9.82629 8.9213 10.0809 8.66667 10.3947 8.66667ZM12.6671 8.66667C12.9808 8.66667 13.2355 8.92131 13.2355 9.23503V16.0983C13.2355 16.412 12.9808 16.6667 12.6671 16.6667C12.3534 16.6667 12.0988 16.412 12.0988 16.0983V9.23503C12.0988 8.9213 12.3534 8.66667 12.6671 8.66667ZM14.9386 8.66667C15.2523 8.66667 15.507 8.9213 15.507 9.23503V16.0983C15.507 16.412 15.2523 16.6667 14.9386 16.6667C14.6249 16.6666 14.3702 16.412 14.3702 16.0983V9.23503C14.3702 8.92135 14.6249 8.66674 14.9386 8.66667Z" fill="#ACB7C8"/>
</g>
<defs>
<filter id="filter0_d_0_1007" x="0" y="0" width="25.3333" height="25.3333" filterUnits="userSpaceOnUse" color-interpolation-filters="sRGB">
<feFlood flood-opacity="0" result="BackgroundImageFix"/>
<feColorMatrix in="SourceAlpha" type="matrix" values="0 0 0 0 0 0 0 0 0 0 0 0 0 0 0 0 0 0 127 0" result="hardAlpha"/>
<feOffset/>
<feGaussianBlur stdDeviation="1.33333"/>
<feColorMatrix type="matrix" values="0 0 0 0 0.0175744 0 0 0 0 0.122942 0 0 0 0 0.280993 0 0 0 0.15 0"/>
<feBlend mode="normal" in2="BackgroundImageFix" result="effect1_dropShadow_0_1007"/>
<feBlend mode="normal" in="SourceGraphic" in2="effect1_dropShadow_0_1007" result="shape"/>
</filter>
</defs>
</svg>
