<svg preserveAspectRatio="none" overflow="visible" style="display: block;" width="20" height="20" viewBox="0 0 20 20" fill="none" xmlns="http://www.w3.org/2000/svg">
<g id="Group">
<g id="Vector">
</g>
<path id="Vector_2" d="M16.1583 2.63418L17.3358 3.81251L15.2733 5.87501L17.3358 7.93751L15.2733 10L17.3358 12.0633L15.2733 14.1258L17.3358 16.1883L16.1575 17.3667L12.9167 14.125L14.9792 12.0633L12.9167 10L14.9792 7.93751L12.9167 5.87501L16.1583 2.63418ZM10.7392 3.11584C10.8 3.19015 10.8332 3.28317 10.8333 3.37918V16.6208C10.8334 16.6998 10.811 16.7771 10.7688 16.8438C10.7266 16.9105 10.6664 16.9639 10.595 16.9977C10.5237 17.0315 10.4442 17.0443 10.3659 17.0347C10.2875 17.0251 10.2135 16.9934 10.1525 16.9433L5.74167 13.3325L2.5 13.3333C2.27899 13.3333 2.06702 13.2455 1.91074 13.0893C1.75446 12.933 1.66667 12.721 1.66667 12.5V7.50001C1.66667 7.279 1.75446 7.06703 1.91074 6.91075C2.06702 6.75447 2.27899 6.66668 2.5 6.66668H5.74083L10.1525 3.05668C10.1948 3.02196 10.2436 2.99593 10.296 2.98007C10.3484 2.96421 10.4034 2.95883 10.4579 2.96425C10.5124 2.96967 10.5653 2.98577 10.6135 3.01164C10.6618 3.03751 10.7045 3.07263 10.7392 3.11501V3.11584ZM9.16667 6.01668L6.33583 8.33251H3.33333V11.6667L6.33583 11.6658L9.16667 13.9825V6.01668Z" fill="#6B7D99"/>
</g>
</svg>
