<svg preserveAspectRatio="none" overflow="visible" style="display: block;" width="437" height="53" viewBox="0 0 437 53" fill="none" xmlns="http://www.w3.org/2000/svg">
<g id="Frame 427319336" clip-path="url(#clip0_0_450)">
<path id="Vector" d="M0 53H0.958951H1.9179H2.87685H3.8358H4.79475H5.75371H6.71266H7.67161H8.63056H9.58951H10.5485H11.5074H12.4664H13.4253H14.3843H15.3432H16.3022H17.2611H18.2201H19.179H20.138H21.0969H22.0559H23.0148H23.9738H24.9327H25.8917H26.8506H27.8096H28.7685H29.7275H30.6864H31.6454H32.6043L33.5633 52.6549L34.5222 51.9994L35.4812 51.4473H36.4401L37.3991 51.2747L38.358 51.1367L39.317 51.1712L40.2759 51.3437L41.2349 51.5508L42.1938 51.5853H43.1528L44.1117 51.5163L45.0707 51.4473L46.0296 51.4128L46.9886 51.2057L47.9475 51.1367L48.9065 51.2402L49.8655 51.3783L50.8244 51.5508H51.7834L52.7423 51.5163L53.7013 51.4818L54.6602 51.3783L55.6192 51.2402L56.5781 51.1712L57.5371 51.2057L58.496 51.2989L59.455 51.3437L60.4139 51.4818L61.3729 51.5853L62.3318 51.5508L63.2908 51.4818L64.2497 51.3783L65.2087 51.1712L66.1676 51.1367L67.1266 51.2057L68.0855 51.3437L69.0445 51.4128L70.0034 51.4818L70.9624 51.5853L71.9213 51.5508L72.8803 51.4128L73.8392 51.3092L74.7982 51.1712L75.7571 51.1022L76.7161 51.1712L77.675 51.3437L78.634 51.4473L79.5929 51.5163L80.5519 51.5853L81.5108 51.4473L82.4698 51.3092L83.4287 51.2402L84.3877 51.1712L85.3466 51.1367L86.3056 51.2402L87.2645 51.3783L88.2235 51.5163L89.1824 51.5508H90.1414L91.1003 51.5163L92.0593 51.3783L93.0182 51.3092L93.9772 51.2402H94.9361L95.8951 51.3783H96.8541L97.813 51.4818L98.772 51.5508L99.7309 51.6198L100.69 51.5508L101.649 51.3437L102.608 51.1367H103.567L104.526 51.2747L105.485 51.4128L106.444 51.4818H107.403L108.361 51.5853L109.32 51.5508L110.279 51.4473L111.238 51.3092L112.197 51.1712L113.156 51.2057L114.115 51.3334L115.074 51.3783L116.033 51.5163L116.992 51.5508L117.951 51.5163L118.91 51.4128L119.869 51.2747L120.828 51.1712L121.787 51.1022L122.746 51.1367L123.705 51.2402L124.664 51.3783L125.623 51.4818L126.582 51.5163L127.54 51.5853H128.499L129.458 51.4473L130.417 51.2747L131.376 51.1367L132.335 51.1712L133.294 51.3783L134.253 51.4818L135.212 51.5508L136.171 51.5853L137.13 51.5508L138.089 51.4128L139.048 51.3092L140.007 51.2747H140.966H141.925L142.884 51.3437L143.843 51.4128L144.802 51.5163L145.761 51.5853L146.72 51.4818L147.678 51.3437L148.637 51.2471L149.596 51.1781L150.555 51.2057L151.514 51.323L152.473 51.3437L153.432 51.4818L154.391 51.5508H155.35H156.309L157.268 51.4128L158.227 51.2816L159.186 51.1781L160.145 51.2057L161.104 51.323L162.063 51.4473L163.022 51.5853L163.981 51.6198L164.94 51.5508L165.899 51.4818L166.857 51.3437L167.816 51.3161L168.775 51.1885L169.734 51.1643L170.693 51.2747L171.652 51.3437L172.611 51.4473L173.57 51.5508L174.529 51.4818L175.488 51.3783L176.447 51.3092L177.406 51.2747H178.365H179.324L180.283 51.3092L181.242 51.3783L182.201 51.4818L183.16 51.6198L184.119 51.5163L185.078 51.4473L186.036 51.3783L186.995 51.2747H187.954L188.913 51.2402L189.872 51.2057L190.831 51.2402L191.79 51.2747H192.749L193.708 50.5846L194.667 49.7462L195.626 49.0526L196.585 48.5523L197.544 48.0554L198.503 47.6413L199.462 47.2859L200.421 47.0996L201.38 46.8926L202.339 46.72L203.298 46.375L204.257 46.0127L205.216 45.5434L206.174 44.9741L207.133 44.4082L208.092 43.8837L209.051 43.3385L210.01 42.9935L210.969 42.7865L211.928 42.6829L212.887 42.6139L213.846 42.4414L214.805 42.0722L215.764 41.4994L216.723 40.5436L217.682 37.6452L218.641 33.2285L219.6 29.1569L220.559 28.7428L221.518 27.2005L222.477 24.723L223.436 21.8245L224.395 19.8336L225.353 18.7881L226.312 17.9772L227.271 17.4769L228.23 17.2871L229.189 17.3561L230.148 17.3906L231.107 17.5632L232.066 17.7357L233.025 18.0807L233.984 18.6673L234.943 19.2884L235.902 19.6335L236.861 19.7025L237.82 19.668L238.779 19.3229L239.738 17.7978L240.697 14.958L241.656 11.1176L242.615 7.34961L243.574 2.17383L244.533 0L245.491 0.552083L246.45 3.3125L247.409 5.07226L248.368 5.76237L249.327 5.62435L250.286 5.79687L251.245 7.6153L252.204 11.4971L253.163 16.7488L254.122 22.004L255.081 26.7312L256.04 29.4605L256.999 30.0885L257.958 30.054L258.917 29.4329L259.876 28.3288L260.835 26.9486L261.794 25.665L262.753 24.4918L263.712 23.3945L264.67 22.4491L265.629 21.9453L266.588 21.7728L267.547 21.7038L268.506 21.6003L269.465 22.3904L270.424 24.2951L271.383 27.1625L272.342 30.0264L273.301 32.8938L274.26 35.7612L275.219 38.3077L276.178 39.6361L277.137 39.9225L278.096 40.2676L279.055 40.8645L280.014 41.6719L280.973 42.4759L281.932 43.2799L282.891 44.0873L283.849 44.8913L284.808 45.6159L285.767 46.0541L286.726 46.2025L287.685 46.4199L288.644 46.8236L289.603 47.5482L290.562 48.2728L291.521 48.9974L292.48 49.4011L293.439 49.377L294.398 49.2734L295.357 49.1699L296.316 48.6316L297.275 47.7656L298.234 46.8098L299.193 45.9057L300.152 45.0535L301.111 44.4979L302.07 44.2012L303.029 43.9941L303.987 43.8561L304.946 43.9251L305.905 43.9596L306.864 43.8906L307.823 43.2626L308.782 41.32L309.741 38.6631L310.7 36.0165L311.659 33.3493L312.618 31.0892L313.577 30.054L314.536 29.5365L315.495 28.8533L316.454 27.8906L317.413 26.7588L318.372 25.6305L319.331 24.5021L320.29 23.4842L321.249 22.8183L322.208 22.5319L323.166 22.3939L324.125 22.2214L325.084 21.9695L326.043 21.7831L327.002 21.6244L327.961 21.5278L328.92 21.4243L329.879 21.2552H330.838H331.797L332.756 21.0137L333.715 20.2649L334.674 19.2401L335.633 18.2912L336.592 17.3492L337.551 16.4072L338.51 15.4687L339.469 14.5336L340.428 13.8366L341.387 13.2845L342.346 12.8014L343.304 11.5592L344.263 9.9306L345.222 9.19564L346.181 11.2901L347.14 13.6227L348.099 15.9518L349.058 18.2809L350.017 20.3753L350.976 21.5761L351.935 21.9798L352.894 22.2386L353.853 22.5906L354.812 23.0426L355.771 23.5464L356.73 24.0467L357.689 24.5505L358.648 24.968L359.607 25.1888L360.566 25.2233L361.525 25.2578L362.483 25.3786L363.442 25.696L364.401 26.148L365.36 26.6518L366.319 27.1521L367.278 27.6559L368.237 28.0044L369.196 28.0872L370.155 27.9837L371.114 28.0872L372.073 28.2736L373.032 28.6842L373.991 29.3915L374.95 30.2128L375.909 31.0374L376.868 31.8587L377.827 32.6833L378.786 33.1871L379.745 33.401L380.704 33.5391L381.662 34.0221L382.621 34.6536L383.58 35.461L384.539 36.265L385.498 37.0689L386.457 37.8764L387.416 38.5423L388.375 38.9219L389.334 39.0254L390.293 39.0944L391.252 39.7465L392.211 41.144L393.17 43.0867L394.129 45.0327L395.088 46.9788L396.047 48.7283L397.006 49.5978L397.965 49.6875L398.924 49.722L399.883 49.998L400.842 50.4121L401.8 50.8952L402.759 51.2057L403.718 51.3437L404.677 51.3783L405.636 51.5163L406.595 51.5508H407.554L408.513 51.4818L409.472 51.3783H410.431L411.39 51.2747H412.349L413.308 51.3092L414.267 51.3437L415.226 51.4818L416.185 51.5508L417.144 51.4818L418.103 51.3783L419.062 51.3092L420.021 51.2747L420.979 51.2402L421.938 51.2057L422.897 51.2747L423.856 51.4128L424.815 51.5508H425.774L426.733 51.4818L427.692 51.4473L428.651 51.3783L429.61 51.2402L430.569 51.1367L431.528 51.1712L432.487 51.3437L433.446 51.4818L434.405 51.5508L435.364 51.6198L436.323 51.4818L437.282 51.4128L438.241 51.3437L439.2 51.2747H440.159H441.117L442.076 51.3783L443.035 51.4473L443.994 51.5163L444.953 51.5853L445.912 51.5163L446.871 51.3783L447.83 51.3092L448.789 51.2747H449.748L450.707 51.0677L451.666 50.7917L452.625 50.5501L453.584 50.3431L454.543 50.0671L455.502 49.722L456.461 49.3804L457.42 49.163L458.379 48.9456L459.338 48.7283L460.296 48.6144L461.255 48.4798L462.214 48.5488H463.173L464.132 48.3763L465.091 48.0071L466.05 47.6862L467.009 47.4792L467.968 47.248L468.927 47.0202L469.886 46.72L470.845 46.099L471.804 45.4779L472.763 45.2363H473.722L474.681 45.2639L475.64 45.4019L476.599 45.6504L477.558 45.9264L478.517 46.2025L479.475 46.5199L480.434 46.8995L481.393 47.1341L482.352 47.2376L483.311 47.2721L484.27 47.4723L485.229 47.8587L486.188 48.2866L487.147 48.2521L488.106 45.1673L489.065 37.9212L490.024 28.7428L490.983 21.2897L491.942 20.9447L492.901 13.2155L493.86 6.08672L494.819 3.35391L495.778 5.74512L496.737 8.2847L497.696 10.8243L498.655 13.3673L499.613 15.0408L500.572 15.6309L501.531 15.3548L502.49 15.3479L503.449 15.7102L504.408 16.3762L505.367 17.0421L506.326 17.7046L507.285 18.3706L508.244 19.0365L509.203 19.6059L510.162 19.9095L511.121 20.082L512.08 20.3926L513.039 20.6065L513.998 20.8239L514.957 21.0827L515.916 21.3415L516.875 21.4553L517.834 21.4277L518.792 21.3587L519.751 21.2207L520.71 20.8411L521.669 20.3926L522.628 20.0475L523.587 19.7025L524.546 19.3574L525.505 19.0124L526.464 18.6673L527.423 18.4258L528.382 18.3568H529.341L530.3 18.3223L531.259 18.1842L532.218 18.0462L533.177 17.9772L534.136 18.0117L535.095 18.1152L536.054 18.2533L537.013 18.1842L537.972 18.0462L538.93 17.7357L539.889 17.2871L540.848 16.7695L541.807 16.4245L542.766 16.0794L543.725 15.7344L544.684 15.4928L545.643 15.4238L546.602 15.4583L547.561 15.4238L548.52 15.3203L549.479 15.2789L550.438 15.4204L551.397 15.6412L552.356 15.9242L553.315 16.2036L554.274 16.4866L555.233 16.7868L556.192 17.0801L557.151 17.2871L558.109 17.4251L559.068 17.9979L560.027 19.4092L560.986 21.5589L561.945 23.8293L562.904 26.0997L563.863 28.3702L564.822 30.3128L565.781 31.172L566.74 31.2272L567.699 31.4342L568.658 32.8248L569.617 35.7853L570.576 39.9639L571.535 44.1425L572.494 47.9036L573.453 50.2016L574.412 50.8262L575.371 50.8607L576.33 50.6191L577.288 50.1878L578.247 49.6702L579.206 49.0319L580.165 48.3418L581.124 47.6517L582.083 46.9616L583.042 46.4095L584.001 46.0645L584.96 45.6849L585.919 45.1259L586.878 44.2184L587.837 43.2523L588.796 42.3448L589.755 41.6133L590.714 40.9232L591.673 40.4746L592.632 40.1986L593.591 40.0605L594.55 39.957L595.509 39.9225L596.468 40.0019L597.426 40.3366L598.385 40.7506L599.344 41.2096L600.303 41.6719L601.262 42.0273L602.221 42.4069L603.18 42.6829L604.139 42.821L605.098 42.9935L606.057 43.3144L607.016 43.7526L607.975 44.2012L608.934 44.5462L609.893 42.6726L610.852 38.9219L611.811 35.2988L612.77 34.3327L613.729 31.0029L614.688 24.5332L615.647 17.6839L616.605 13.8021L617.564 11.8353L618.523 10.7484L619.482 10.5586L620.441 11.0762L621.4 11.542L622.359 11.8353H623.318L624.277 12.4184L625.236 13.9367L626.195 16.1036L627.154 18.274L628.113 20.4409L629.072 22.6113L630.031 24.7782L630.99 26.2274L631.949 26.7415L632.908 26.5345L633.867 25.9755L634.826 24.792L635.785 23.4118L636.743 22.0316L637.702 20.5824L638.661 19.178L639.62 18.2187L640.579 17.7012L641.538 17.3561L642.497 17.1491L643.456 18.2636L644.415 21.1689L645.374 25.2233L646.333 29.2777L647.292 32.1865L648.251 33.3665L649.21 33.263L650.169 32.987L651.128 32.566L652.087 31.6413L653.046 30.3128L654.005 28.8878L654.964 27.5145L655.922 26.1895L656.881 25.2026L657.84 24.6022L658.799 24.3262L659.758 24.2917L660.717 24.3607H661.676L662.635 23.5671L663.594 22.0143L664.553 20.0751L665.512 17.9772L666.471 15.6136L667.43 13.6986L668.389 12.5254L669.348 12.2839L670.307 11.9733L671.266 11.8456L672.225 12.5599L673.184 14.1816L674.143 16.0208L675.102 17.8633L676.06 19.2194L677.019 19.9095L677.978 20.082L678.937 20.151L679.896 20.4064L680.855 20.7859L681.814 21.2897L682.773 21.7728L683.732 22.2559L684.691 22.6906L685.65 23.0702L686.609 23.3255L687.568 23.498H688.527L689.486 23.5878L690.445 23.7603L691.404 23.9811L692.363 24.1881L693.322 24.3952L694.281 24.5815L695.239 24.616L696.198 24.5677L697.157 24.5332L698.116 24.4987L699.075 24.409L700.034 24.2917L700.993 24.2227L701.952 24.1536L702.911 24.0846L703.87 24.0018L704.829 23.9811L705.788 24.0156H706.747L707.706 23.8431L708.665 23.5325L709.624 23.222L710.583 22.9805L711.542 22.6354L712.501 22.2904L713.46 22.0833L714.418 21.9798L715.377 21.8763L716.336 21.7383L717.295 21.4622L718.254 21.0827L719.213 20.7376L720.172 20.3926L721.131 20.0475L722.09 19.7025L723.049 19.4609L724.008 19.2884L724.967 19.2194L725.926 19.2539L726.885 19.385L727.844 19.7197L728.803 20.2649L729.762 20.8687L730.721 21.4726L731.68 22.0764L732.639 22.7217L733.598 23.3014L734.556 23.6016L735.515 23.5671L736.474 23.4704L737.433 23.8776L738.392 24.792L739.351 25.8858L740.31 26.9762L741.269 28.07L742.228 28.9499L743.187 29.3225L744.146 29.3639L745.105 29.5365L746.064 26.776L747.023 20.0475L747.982 13.25L748.941 10.2825L749.9 10.2135L750.859 13.7331L751.818 27.7077L752.777 41.6823L753.735 45.1673L754.694 31.5033L755.653 17.7357L756.612 10.6966L757.571 10.5931L758.53 10.5241L759.489 10.4896L760.448 26.0169L761.407 41.4753L762.366 49.1354L763.325 49.0319L764.284 45.1328L765.243 38.7355L766.202 33.9186L767.161 38.1283L768.12 42.3379L769.079 46.5475L770.038 49.8393L770.997 51.4473L771.956 51.5853L772.915 51.4818L773.873 51.4473L774.832 51.4128L775.791 51.2747L776.75 51.1712L777.709 51.2506L778.668 51.4473L779.627 51.6198H780.586L781.545 51.5163L782.504 51.4128L783.463 51.3437H784.422L785.381 51.2057H786.34L787.299 51.3092L788.258 51.4818L789.217 51.6198H790.176L791.135 51.4818L792.094 51.4128L793.052 51.3437L794.011 51.2057L794.97 51.1712L795.929 51.2057L796.888 51.4128L797.847 51.4818L798.806 51.5508L799.765 51.6198L800.724 51.5163L801.683 51.4128L802.642 51.3334L803.601 51.2057L804.56 51.1712L805.519 51.2402L806.478 51.3092L807.437 51.3783L808.396 51.4818L809.355 51.5508H810.314L811.273 51.4128L812.231 51.2747L813.19 51.1367L814.149 51.1022L815.108 51.1712L816.067 51.3092L817.026 51.4473L817.985 51.5508H818.944L819.903 51.5163L820.862 51.3783L821.821 51.3092L822.78 51.1712L823.739 51.1367L824.698 51.2747L825.657 51.3437L826.616 51.4818L827.575 51.5508L828.534 51.5853L829.493 51.5163L830.452 51.3092L831.411 51.1367H832.369L833.328 51.2402L834.287 51.4473L835.246 51.4818L836.205 51.5163L837.164 51.5853H838.123L839.082 51.5163L840.041 51.3437L841 51.1367" stroke="#9536F3" stroke-width="1.5" stroke-linecap="round" stroke-linejoin="round"/>
</g>
<defs>
<clipPath id="clip0_0_450">
<rect width="437" height="53" fill="white"/>
</clipPath>
</defs>
</svg>
