<svg preserveAspectRatio="none" width="100%" height="100%" overflow="visible" style="display: block;" viewBox="0 0 461.703 55.0019" fill="none" xmlns="http://www.w3.org/2000/svg">
<g id="Group 1">
<path id="Vector" d="M0.351417 4.18935L1.50681 5.3309L2.66219 6.60914L3.81758 8.01618L4.97297 9.54336L6.12836 11.1812L7.28375 12.9197L8.43914 14.7481L9.59453 16.6552L10.7499 18.6291L11.9053 20.6577L13.0607 22.7284L14.2161 24.8287L15.3715 26.9453L16.5269 29.0654L17.6822 31.1759L18.8376 33.2637L19.993 35.316L21.1484 37.3201L22.3038 39.2636L23.4592 41.1347L24.6146 42.9216L25.77 44.6136L26.9254 46.1999L28.0807 47.6711L29.2361 49.0178L30.3915 50.2319L31.5469 51.3059L32.7023 52.2331L33.8577 53.0078L35.0131 53.6252L36.1685 54.0816L37.3238 54.3741L38.4792 54.5009L39.6346 54.4613L40.79 54.2554L41.9454 53.8846L43.1008 53.3512L44.2562 52.6583L45.4116 51.8104L46.567 50.8125L47.7223 49.671L48.8777 48.3927L50.0331 46.9857L51.1885 45.4585L52.3439 43.8206L53.4993 42.0821L54.6547 40.2537L55.8101 38.3467L56.9655 36.3728L58.1208 34.3442L59.2762 32.2734L60.4316 30.1732L61.587 28.0565L62.7424 25.9364L63.8978 23.826L65.0532 21.7382L66.2086 19.6859L67.3639 17.6818L68.5193 15.7382L69.6747 13.8672L70.8301 12.0802L71.9855 10.3883L73.1409 8.80193L74.2963 7.33081L75.4517 5.98406L76.6071 4.76996L77.7624 3.696L78.9178 2.76881L80.0732 1.9941L81.2286 1.37665L82.384 0.92027L83.5394 0.627763L84.6948 0.500939L85.8502 0.540579L87.0056 0.746438L88.1609 1.11725L89.3163 1.65072L90.4717 2.34357L91.6271 3.19152L92.7825 4.18935L93.9379 5.3309L95.0933 6.60914L96.2487 8.01618L97.404 9.54336L98.5594 11.1812L99.7148 12.9197L100.87 14.7481L102.026 16.6552L103.181 18.6291L104.336 20.6577L105.492 22.7284L106.647 24.8287L107.803 26.9453L108.958 29.0654L110.113 31.1759L111.269 33.2637L112.424 35.316L113.579 37.3201L114.735 39.2636L115.89 41.1347L117.046 42.9216L118.201 44.6136L119.356 46.1999L120.512 47.6711L121.667 49.0178L122.823 50.2319L123.978 51.3059L125.133 52.2331L126.289 53.0078L127.444 53.6252L128.6 54.0816L129.755 54.3741L130.91 54.5009L132.066 54.4613L133.221 54.2554L134.376 53.8846L135.532 53.3512L136.687 52.6583L137.843 51.8104L138.998 50.8125L140.153 49.671L141.309 48.3927L142.464 46.9857L143.62 45.4585L144.775 43.8206L145.93 42.0821L147.086 40.2537L148.241 38.3467L149.397 36.3728L150.552 34.3442L151.707 32.2734L152.863 30.1732L154.018 28.0565L155.173 25.9364L156.329 23.826L157.484 21.7382L158.64 19.6859L159.795 17.6818L160.95 15.7382L162.106 13.8672L163.261 12.0802L164.417 10.3883L165.572 8.80193L166.727 7.33081L167.883 5.98406L169.038 4.76996L170.194 3.696L171.349 2.76881L172.504 1.9941L173.66 1.37665L174.815 0.92027L175.97 0.627763L177.126 0.500939L178.281 0.540579L179.437 0.746438L180.592 1.11725L181.747 1.65072L182.903 2.34357L184.058 3.19152L185.214 4.18935L186.369 5.3309L187.524 6.60914L188.68 8.01618L189.835 9.54336L190.991 11.1812L192.146 12.9197L193.301 14.7481L194.457 16.6552L195.612 18.6291L196.767 20.6577L197.923 22.7284L199.078 24.8287L200.234 26.9453L201.389 29.0654L202.544 31.1759L203.7 33.2637L204.855 35.316L206.011 37.3201L207.166 39.2636L208.321 41.1347L209.477 42.9216L210.632 44.6136L211.788 46.1999L212.943 47.6711L214.098 49.0178L215.254 50.2319L216.409 51.3059L217.564 52.2331L218.72 53.0078L219.875 53.6252L221.031 54.0816L222.186 54.3741L223.341 54.5009L224.497 54.4613L225.652 54.2554L226.808 53.8846L227.963 53.3512L229.118 52.6583L230.274 51.8104L231.429 50.8125L232.585 49.671L233.74 48.3927L234.895 46.9857L236.051 45.4585L237.206 43.8206L238.361 42.0821L239.517 40.2537L240.672 38.3467L241.828 36.3728L242.983 34.3442L244.138 32.2734L245.294 30.1732L246.449 28.0565L247.605 25.9364L248.76 23.826L249.915 21.7382L251.071 19.6859L252.226 17.6818L253.381 15.7382L254.537 13.8672L255.692 12.0802L256.848 10.3883L258.003 8.80193L259.158 7.33081L260.314 5.98406L261.469 4.76996L262.625 3.696L263.78 2.76881L264.935 1.9941L266.091 1.37665L267.246 0.92027L268.402 0.627763L269.557 0.500939L270.712 0.540579L271.868 0.746438L273.023 1.11725L274.178 1.65072L275.334 2.34357L276.489 3.19152L277.645 4.18935L278.8 5.3309L279.955 6.60914L281.111 8.01618L282.266 9.54336L283.422 11.1812L284.577 12.9197L285.732 14.7481L286.888 16.6552L288.043 18.6291L289.199 20.6577L290.354 22.7284L291.509 24.8287L292.665 26.9453L293.82 29.0654L294.975 31.1759L296.131 33.2637L297.286 35.316L298.442 37.3201L299.597 39.2636L300.752 41.1347L301.908 42.9216L303.063 44.6136L304.219 46.1999L305.374 47.6711L306.529 49.0178L307.685 50.2319L308.84 51.3059L309.996 52.2331L311.151 53.0078L312.306 53.6252L313.462 54.0816L314.617 54.3741L315.772 54.5009L316.928 54.4613L318.083 54.2554L319.239 53.8846L320.394 53.3512L321.549 52.6583L322.705 51.8104L323.86 50.8125L325.016 49.671L326.171 48.3927L327.326 46.9857L328.482 45.4585L329.637 43.8206L330.793 42.0821L331.948 40.2537L333.103 38.3467L334.259 36.3728L335.414 34.3442L336.569 32.2734L337.725 30.1732L338.88 28.0565L340.036 25.9364L341.191 23.826L342.346 21.7382L343.502 19.6859L344.657 17.6818L345.813 15.7382L346.968 13.8672L348.123 12.0802L349.279 10.3883L350.434 8.80193L351.59 7.33081L352.745 5.98406L353.9 4.76996L355.056 3.696L356.211 2.76881L357.366 1.9941L358.522 1.37665L359.677 0.92027L360.833 0.627763L361.988 0.500939L363.143 0.540579L364.299 0.746438L365.454 1.11725L366.61 1.65072L367.765 2.34357L368.92 3.19152L370.076 4.18935L371.231 5.3309L372.387 6.60914L373.542 8.01618L374.697 9.54336L375.853 11.1812L377.008 12.9197L378.163 14.7481L379.319 16.6552L380.474 18.6291L381.63 20.6577L382.785 22.7284L383.94 24.8287L385.096 26.9453L386.251 29.0654L387.407 31.1759L388.562 33.2637L389.717 35.316L390.873 37.3201L392.028 39.2636L393.183 41.1347L394.339 42.9216L395.494 44.6136L396.65 46.1999L397.805 47.6711L398.96 49.0178L400.116 50.2319L401.271 51.3059L402.427 52.2331L403.582 53.0078L404.737 53.6252L405.893 54.0816L407.048 54.3741L408.204 54.5009L409.359 54.4613L410.514 54.2554L411.67 53.8846L412.825 53.3512L413.98 52.6583L415.136 51.8104L416.291 50.8125L417.447 49.671L418.602 48.3927L419.757 46.9857L420.913 45.4585L422.068 43.8206L423.224 42.0821L424.379 40.2537L425.534 38.3467L426.69 36.3728L427.845 34.3442L429.001 32.2734L430.156 30.1732L431.311 28.0565L432.467 25.9364L433.622 23.826L434.777 21.7382L435.933 19.6859L437.088 17.6818L438.244 15.7382L439.399 13.8672L440.554 12.0802L441.71 10.3883L442.865 8.80193L444.021 7.33081L445.176 5.98406L446.331 4.76996L447.487 3.696L448.642 2.76881L449.798 1.9941L450.953 1.37665L452.108 0.92027L453.264 0.627763L454.419 0.500939L455.574 0.540579L456.73 0.746438L457.885 1.11725L459.041 1.65072L460.196 2.34357L461.351 3.19152" stroke="var(--stroke-0, #2F86FF)"/>
<path id="Vector_2" d="M461.351 4.18935L460.196 5.3309L459.041 6.60914L457.885 8.01618L456.73 9.54336L455.574 11.1812L454.419 12.9197L453.264 14.7481L452.108 16.6552L450.953 18.6291L449.798 20.6577L448.642 22.7284L447.487 24.8287L446.331 26.9453L445.176 29.0654L444.021 31.1759L442.865 33.2637L441.71 35.316L440.554 37.3201L439.399 39.2636L438.244 41.1347L437.088 42.9216L435.933 44.6136L434.777 46.1999L433.622 47.6711L432.467 49.0178L431.311 50.2319L430.156 51.3059L429.001 52.2331L427.845 53.0078L426.69 53.6252L425.534 54.0816L424.379 54.3741L423.224 54.5009L422.068 54.4613L420.913 54.2554L419.757 53.8846L418.602 53.3512L417.447 52.6583L416.291 51.8104L415.136 50.8125L413.98 49.671L412.825 48.3927L411.67 46.9857L410.514 45.4585L409.359 43.8206L408.204 42.0821L407.048 40.2537L405.893 38.3467L404.737 36.3728L403.582 34.3442L402.427 32.2734L401.271 30.1732L400.116 28.0565L398.96 25.9364L397.805 23.826L396.65 21.7382L395.494 19.6859L394.339 17.6818L393.183 15.7382L392.028 13.8672L390.873 12.0802L389.717 10.3883L388.562 8.80193L387.407 7.33081L386.251 5.98406L385.096 4.76996L383.94 3.696L382.785 2.76881L381.63 1.9941L380.474 1.37665L379.319 0.92027L378.163 0.627763L377.008 0.500939L375.853 0.540579L374.697 0.746438L373.542 1.11725L372.387 1.65072L371.231 2.34357L370.076 3.19152L368.92 4.18935L367.765 5.3309L366.61 6.60914L365.454 8.01618L364.299 9.54336L363.143 11.1812L361.988 12.9197L360.833 14.7481L359.677 16.6552L358.522 18.6291L357.366 20.6577L356.211 22.7284L355.056 24.8287L353.9 26.9453L352.745 29.0654L351.59 31.1759L350.434 33.2637L349.279 35.316L348.123 37.3201L346.968 39.2636L345.813 41.1347L344.657 42.9216L343.502 44.6136L342.346 46.1999L341.191 47.6711L340.036 49.0178L338.88 50.2319L337.725 51.3059L336.569 52.2331L335.414 53.0078L334.259 53.6252L333.103 54.0816L331.948 54.3741L330.793 54.5009L329.637 54.4613L328.482 54.2554L327.326 53.8846L326.171 53.3512L325.016 52.6583L323.86 51.8104L322.705 50.8125L321.549 49.671L320.394 48.3927L319.239 46.9857L318.083 45.4585L316.928 43.8206L315.772 42.0821L314.617 40.2537L313.462 38.3467L312.306 36.3728L311.151 34.3442L309.996 32.2734L308.84 30.1732L307.685 28.0565L306.529 25.9364L305.374 23.826L304.219 21.7382L303.063 19.6859L301.908 17.6818L300.752 15.7382L299.597 13.8672L298.442 12.0802L297.286 10.3883L296.131 8.80193L294.975 7.33081L293.82 5.98406L292.665 4.76996L291.509 3.696L290.354 2.76881L289.199 1.9941L288.043 1.37665L286.888 0.92027L285.732 0.627763L284.577 0.500939L283.422 0.540579L282.266 0.746438L281.111 1.11725L279.955 1.65072L278.8 2.34357L277.645 3.19152L276.489 4.18935L275.334 5.3309L274.178 6.60914L273.023 8.01618L271.868 9.54336L270.712 11.1812L269.557 12.9197L268.402 14.7481L267.246 16.6552L266.091 18.6291L264.935 20.6577L263.78 22.7284L262.625 24.8287L261.469 26.9453L260.314 29.0654L259.158 31.1759L258.003 33.2637L256.848 35.316L255.692 37.3201L254.537 39.2636L253.381 41.1347L252.226 42.9216L251.071 44.6136L249.915 46.1999L248.76 47.6711L247.605 49.0178L246.449 50.2319L245.294 51.3059L244.138 52.2331L242.983 53.0078L241.828 53.6252L240.672 54.0816L239.517 54.3741L238.361 54.5009L237.206 54.4613L236.051 54.2554L234.895 53.8846L233.74 53.3512L232.584 52.6583L231.429 51.8104L230.274 50.8125L229.118 49.671L227.963 48.3927L226.808 46.9857L225.652 45.4585L224.497 43.8206L223.341 42.0821L222.186 40.2537L221.031 38.3467L219.875 36.3728L218.72 34.3442L217.564 32.2734L216.409 30.1732L215.254 28.0565L214.098 25.9364L212.943 23.826L211.788 21.7382L210.632 19.6859L209.477 17.6818L208.321 15.7382L207.166 13.8672L206.011 12.0802L204.855 10.3883L203.7 8.80193L202.544 7.33081L201.389 5.98406L200.234 4.76996L199.078 3.696L197.923 2.76881L196.767 1.9941L195.612 1.37665L194.457 0.92027L193.301 0.627763L192.146 0.500939L190.991 0.540579L189.835 0.746438L188.68 1.11725L187.524 1.65072L186.369 2.34357L185.214 3.19152L184.058 4.18935L182.903 5.3309L181.747 6.60914L180.592 8.01618L179.437 9.54336L178.281 11.1812L177.126 12.9197L175.97 14.7481L174.815 16.6552L173.66 18.6291L172.504 20.6577L171.349 22.7284L170.194 24.8287L169.038 26.9453L167.883 29.0654L166.727 31.1759L165.572 33.2637L164.417 35.316L163.261 37.3201L162.106 39.2636L160.95 41.1347L159.795 42.9216L158.64 44.6136L157.484 46.1999L156.329 47.6711L155.173 49.0178L154.018 50.2319L152.863 51.3059L151.707 52.2331L150.552 53.0078L149.397 53.6252L148.241 54.0816L147.086 54.3741L145.93 54.5009L144.775 54.4613L143.62 54.2554L142.464 53.8846L141.309 53.3512L140.153 52.6583L138.998 51.8104L137.843 50.8125L136.687 49.671L135.532 48.3927L134.376 46.9857L133.221 45.4585L132.066 43.8206L130.91 42.0821L129.755 40.2537L128.6 38.3467L127.444 36.3728L126.289 34.3442L125.133 32.2734L123.978 30.1732L122.823 28.0565L121.667 25.9364L120.512 23.826L119.356 21.7382L118.201 19.6859L117.046 17.6818L115.89 15.7382L114.735 13.8672L113.579 12.0802L112.424 10.3883L111.269 8.80193L110.113 7.33081L108.958 5.98406L107.803 4.76996L106.647 3.696L105.492 2.76881L104.336 1.9941L103.181 1.37665L102.026 0.92027L100.87 0.627763L99.7148 0.500939L98.5594 0.540579L97.404 0.746438L96.2487 1.11725L95.0933 1.65072L93.9379 2.34357L92.7825 3.19152L91.6271 4.18935L90.4717 5.3309L89.3163 6.60914L88.1609 8.01618L87.0056 9.54336L85.8502 11.1812L84.6948 12.9197L83.5394 14.7481L82.384 16.6552L81.2286 18.6291L80.0732 20.6577L78.9178 22.7284L77.7624 24.8287L76.6071 26.9453L75.4517 29.0654L74.2963 31.1759L73.1409 33.2637L71.9855 35.316L70.8301 37.3201L69.6747 39.2636L68.5193 41.1347L67.3639 42.9216L66.2086 44.6136L65.0532 46.1999L63.8978 47.6711L62.7424 49.0178L61.587 50.2319L60.4316 51.3059L59.2762 52.2331L58.1208 53.0078L56.9655 53.6252L55.8101 54.0816L54.6547 54.3741L53.4993 54.5009L52.3439 54.4613L51.1885 54.2554L50.0331 53.8846L48.8777 53.3512L47.7223 52.6583L46.567 51.8104L45.4116 50.8125L44.2562 49.671L43.1008 48.3927L41.9454 46.9857L40.79 45.4585L39.6346 43.8206L38.4792 42.0821L37.3238 40.2537L36.1685 38.3467L35.0131 36.3728L33.8577 34.3442L32.7023 32.2734L31.5469 30.1732L30.3915 28.0565L29.2361 25.9364L28.0807 23.826L26.9254 21.7382L25.77 19.6859L24.6146 17.6818L23.4592 15.7382L22.3038 13.8672L21.1484 12.0802L19.993 10.3883L18.8376 8.80193L17.6822 7.33081L16.5269 5.98406L15.3715 4.76996L14.2161 3.696L13.0607 2.76881L11.9053 1.9941L10.7499 1.37665L9.59452 0.92027L8.43914 0.627763L7.28375 0.500939L6.12836 0.540579L4.97297 0.746438L3.81758 1.11725L2.66219 1.65072L1.5068 2.34357L0.351416 3.19152" stroke="var(--stroke-0, #FC236B)"/>
</g>
</svg>
